<?xml version="1.0" standalone="no"?>
<!DOCTYPE svg PUBLIC "-//W3C//DTD SVG 20010904//EN"
 "http://www.w3.org/TR/2001/REC-SVG-20010904/DTD/svg10.dtd">
<svg version="1.0" xmlns="http://www.w3.org/2000/svg"
 width="1000.000000pt" height="1000.000000pt" viewBox="0 0 1000.000000 1000.000000"
 preserveAspectRatio="xMidYMid meet">
<metadata>
Created by potrace 1.11, written by Peter Selinger 2001-2013
</metadata>
<g transform="translate(0.000000,1000.000000) scale(0.100000,-0.100000)"
fill="#000000" stroke="none">
<path d="M4243 9553 c-3 -8 -7 -194 -7 -412 l-1 -396 -772 0 c-424 0 -775 -4
-780 -8 -12 -12 -13 -8279 -1 -8294 8 -9 525 -12 2316 -12 1269 0 2312 3 2318
7 13 9 14 8286 1 8299 -5 4 -356 8 -780 8 l-772 0 -1 401 c0 220 -4 405 -8
412 -5 8 -214 11 -757 11 -669 0 -751 -2 -756 -16z"/>
</g>
</svg>
